<svg width="80" height="80" viewBox="0 0 418 296" fill="none" xmlns="http://www.w3.org/2000/svg">
<path d="M21.3906 69H7.14062L7.23438 61.6406H21.3906C26.2656 61.6406 30.3281 60.625 33.5781 58.5938C36.8281 56.5312 39.2656 53.6562 40.8906 49.9688C42.5469 46.25 43.375 41.9062 43.375 36.9375V32.7656C43.375 28.8594 42.9062 25.3906 41.9688 22.3594C41.0312 19.2969 39.6562 16.7188 37.8438 14.625C36.0312 12.5 33.8125 10.8906 31.1875 9.79688C28.5938 8.70312 25.6094 8.15625 22.2344 8.15625H6.85938V0.75H22.2344C26.7031 0.75 30.7812 1.5 34.4688 3C38.1562 4.46875 41.3281 6.60938 43.9844 9.42188C46.6719 12.2031 48.7344 15.5781 50.1719 19.5469C51.6094 23.4844 52.3281 27.9219 52.3281 32.8594V36.9375C52.3281 41.875 51.6094 46.3281 50.1719 50.2969C48.7344 54.2344 46.6562 57.5938 43.9375 60.375C41.25 63.1562 38 65.2969 34.1875 66.7969C30.4062 68.2656 26.1406 69 21.3906 69ZM11.9688 0.75V69H2.92188V0.75H11.9688ZM85.6562 69.9375C82.125 69.9375 78.9219 69.3438 76.0469 68.1562C73.2031 66.9375 70.75 65.2344 68.6875 63.0469C66.6562 60.8594 65.0938 58.2656 64 55.2656C62.9062 52.2656 62.3594 48.9844 62.3594 45.4219V43.4531C62.3594 39.3281 62.9688 35.6562 64.1875 32.4375C65.4062 29.1875 67.0625 26.4375 69.1562 24.1875C71.25 21.9375 73.625 20.2344 76.2812 19.0781C78.9375 17.9219 81.6875 17.3438 84.5312 17.3438C88.1562 17.3438 91.2812 17.9688 93.9062 19.2188C96.5625 20.4688 98.7344 22.2188 100.422 24.4688C102.109 26.6875 103.359 29.3125 104.172 32.3438C104.984 35.3438 105.391 38.625 105.391 42.1875V46.0781H67.5156V39H96.7188V38.3438C96.5938 36.0938 96.125 33.9062 95.3125 31.7812C94.5312 29.6562 93.2812 27.9062 91.5625 26.5312C89.8438 25.1562 87.5 24.4688 84.5312 24.4688C82.5625 24.4688 80.75 24.8906 79.0938 25.7344C77.4375 26.5469 76.0156 27.7656 74.8281 29.3906C73.6406 31.0156 72.7188 33 72.0625 35.3438C71.4062 37.6875 71.0781 40.3906 71.0781 43.4531V45.4219C71.0781 47.8281 71.4062 50.0938 72.0625 52.2188C72.75 54.3125 73.7344 56.1562 75.0156 57.75C76.3281 59.3438 77.9062 60.5938 79.75 61.5C81.625 62.4062 83.75 62.8594 86.125 62.8594C89.1875 62.8594 91.7812 62.2344 93.9062 60.9844C96.0312 59.7344 97.8906 58.0625 99.4844 55.9688L104.734 60.1406C103.641 61.7969 102.25 63.375 100.562 64.875C98.875 66.375 96.7969 67.5938 94.3281 68.5312C91.8906 69.4688 89 69.9375 85.6562 69.9375ZM148.375 18.2812H156.25V67.9219C156.25 72.3906 155.344 76.2031 153.531 79.3594C151.719 82.5156 149.188 84.9062 145.938 86.5312C142.719 88.1875 139 89.0156 134.781 89.0156C133.031 89.0156 130.969 88.7344 128.594 88.1719C126.25 87.6406 123.938 86.7188 121.656 85.4062C119.406 84.125 117.516 82.3906 115.984 80.2031L120.531 75.0469C122.656 77.6094 124.875 79.3906 127.188 80.3906C129.531 81.3906 131.844 81.8906 134.125 81.8906C136.875 81.8906 139.25 81.375 141.25 80.3438C143.25 79.3125 144.797 77.7812 145.891 75.75C147.016 73.75 147.578 71.2812 147.578 68.3438V29.4375L148.375 18.2812ZM113.453 44.2031V43.2188C113.453 39.3438 113.906 35.8281 114.812 32.6719C115.75 29.4844 117.078 26.75 118.797 24.4688C120.547 22.1875 122.656 20.4375 125.125 19.2188C127.594 17.9688 130.375 17.3438 133.469 17.3438C136.656 17.3438 139.438 17.9062 141.812 19.0312C144.219 20.125 146.25 21.7344 147.906 23.8594C149.594 25.9531 150.922 28.4844 151.891 31.4531C152.859 34.4219 153.531 37.7812 153.906 41.5312V45.8438C153.562 49.5625 152.891 52.9062 151.891 55.875C150.922 58.8438 149.594 61.375 147.906 63.4688C146.25 65.5625 144.219 67.1719 141.812 68.2969C139.406 69.3906 136.594 69.9375 133.375 69.9375C130.344 69.9375 127.594 69.2969 125.125 68.0156C122.688 66.7344 120.594 64.9375 118.844 62.625C117.094 60.3125 115.75 57.5938 114.812 54.4688C113.906 51.3125 113.453 47.8906 113.453 44.2031ZM122.125 43.2188V44.2031C122.125 46.7344 122.375 49.1094 122.875 51.3281C123.406 53.5469 124.203 55.5 125.266 57.1875C126.359 58.875 127.75 60.2031 129.438 61.1719C131.125 62.1094 133.141 62.5781 135.484 62.5781C138.359 62.5781 140.734 61.9688 142.609 60.75C144.484 59.5312 145.969 57.9219 147.062 55.9219C148.188 53.9219 149.062 51.75 149.688 49.4062V38.1094C149.344 36.3906 148.812 34.7344 148.094 33.1406C147.406 31.5156 146.5 30.0781 145.375 28.8281C144.281 27.5469 142.922 26.5312 141.297 25.7812C139.672 25.0312 137.766 24.6562 135.578 24.6562C133.203 24.6562 131.156 25.1562 129.438 26.1562C127.75 27.125 126.359 28.4688 125.266 30.1875C124.203 31.875 123.406 33.8438 122.875 36.0938C122.375 38.3125 122.125 40.6875 122.125 43.2188ZM190.656 18.2812V24.9375H163.234V18.2812H190.656ZM172.516 5.95312H181.188V56.4375C181.188 58.1562 181.453 59.4531 181.984 60.3281C182.516 61.2031 183.203 61.7812 184.047 62.0625C184.891 62.3438 185.797 62.4844 186.766 62.4844C187.484 62.4844 188.234 62.4219 189.016 62.2969C189.828 62.1406 190.438 62.0156 190.844 61.9219L190.891 69C190.203 69.2188 189.297 69.4219 188.172 69.6094C187.078 69.8281 185.75 69.9375 184.188 69.9375C182.062 69.9375 180.109 69.5156 178.328 68.6719C176.547 67.8281 175.125 66.4219 174.062 64.4531C173.031 62.4531 172.516 59.7656 172.516 56.3906V5.95312ZM215.078 63.75L229.188 18.2812H238.469L218.125 76.8281C217.656 78.0781 217.031 79.4219 216.25 80.8594C215.5 82.3281 214.531 83.7188 213.344 85.0312C212.156 86.3438 210.719 87.4062 209.031 88.2188C207.375 89.0625 205.391 89.4844 203.078 89.4844C202.391 89.4844 201.516 89.3906 200.453 89.2031C199.391 89.0156 198.641 88.8594 198.203 88.7344L198.156 81.7031C198.406 81.7344 198.797 81.7656 199.328 81.7969C199.891 81.8594 200.281 81.8906 200.5 81.8906C202.469 81.8906 204.141 81.625 205.516 81.0938C206.891 80.5938 208.047 79.7344 208.984 78.5156C209.953 77.3281 210.781 75.6875 211.469 73.5938L215.078 63.75ZM204.719 18.2812L217.891 57.6562L220.141 66.7969L213.906 69.9844L195.25 18.2812H204.719ZM275.453 60.3281V34.2188C275.453 32.2188 275.047 30.4844 274.234 29.0156C273.453 27.5156 272.266 26.3594 270.672 25.5469C269.078 24.7344 267.109 24.3281 264.766 24.3281C262.578 24.3281 260.656 24.7031 259 25.4531C257.375 26.2031 256.094 27.1875 255.156 28.4062C254.25 29.625 253.797 30.9375 253.797 32.3438H245.125C245.125 30.5312 245.594 28.7344 246.531 26.9531C247.469 25.1719 248.812 23.5625 250.562 22.125C252.344 20.6562 254.469 19.5 256.938 18.6562C259.438 17.7812 262.219 17.3438 265.281 17.3438C268.969 17.3438 272.219 17.9688 275.031 19.2188C277.875 20.4688 280.094 22.3594 281.688 24.8906C283.312 27.3906 284.125 30.5312 284.125 34.3125V57.9375C284.125 59.625 284.266 61.4219 284.547 63.3281C284.859 65.2344 285.312 66.875 285.906 68.25V69H276.859C276.422 68 276.078 66.6719 275.828 65.0156C275.578 63.3281 275.453 61.7656 275.453 60.3281ZM276.953 38.25L277.047 44.3438H268.281C265.812 44.3438 263.609 44.5469 261.672 44.9531C259.734 45.3281 258.109 45.9062 256.797 46.6875C255.484 47.4688 254.484 48.4531 253.797 49.6406C253.109 50.7969 252.766 52.1562 252.766 53.7188C252.766 55.3125 253.125 56.7656 253.844 58.0781C254.562 59.3906 255.641 60.4375 257.078 61.2188C258.547 61.9688 260.344 62.3438 262.469 62.3438C265.125 62.3438 267.469 61.7812 269.5 60.6562C271.531 59.5312 273.141 58.1562 274.328 56.5312C275.547 54.9062 276.203 53.3281 276.297 51.7969L280 55.9688C279.781 57.2812 279.188 58.7344 278.219 60.3281C277.25 61.9219 275.953 63.4531 274.328 64.9219C272.734 66.3594 270.828 67.5625 268.609 68.5312C266.422 69.4688 263.953 69.9375 261.203 69.9375C257.766 69.9375 254.75 69.2656 252.156 67.9219C249.594 66.5781 247.594 64.7812 246.156 62.5312C244.75 60.25 244.047 57.7031 244.047 54.8906C244.047 52.1719 244.578 49.7812 245.641 47.7188C246.703 45.625 248.234 43.8906 250.234 42.5156C252.234 41.1094 254.641 40.0469 257.453 39.3281C260.266 38.6094 263.406 38.25 266.875 38.25H276.953ZM306.438 26.25V69H297.766V18.2812H306.203L306.438 26.25ZM322.281 18L322.234 26.0625C321.516 25.9062 320.828 25.8125 320.172 25.7812C319.547 25.7188 318.828 25.6875 318.016 25.6875C316.016 25.6875 314.25 26 312.719 26.625C311.188 27.25 309.891 28.125 308.828 29.25C307.766 30.375 306.922 31.7188 306.297 33.2812C305.703 34.8125 305.312 36.5 305.125 38.3438L302.688 39.75C302.688 36.6875 302.984 33.8125 303.578 31.125C304.203 28.4375 305.156 26.0625 306.438 24C307.719 21.9062 309.344 20.2812 311.312 19.125C313.312 17.9375 315.688 17.3438 318.438 17.3438C319.062 17.3438 319.781 17.4219 320.594 17.5781C321.406 17.7031 321.969 17.8438 322.281 18ZM350.406 69.9375C346.875 69.9375 343.672 69.3438 340.797 68.1562C337.953 66.9375 335.5 65.2344 333.438 63.0469C331.406 60.8594 329.844 58.2656 328.75 55.2656C327.656 52.2656 327.109 48.9844 327.109 45.4219V43.4531C327.109 39.3281 327.719 35.6562 328.938 32.4375C330.156 29.1875 331.812 26.4375 333.906 24.1875C336 21.9375 338.375 20.2344 341.031 19.0781C343.688 17.9219 346.438 17.3438 349.281 17.3438C352.906 17.3438 356.031 17.9688 358.656 19.2188C361.312 20.4688 363.484 22.2188 365.172 24.4688C366.859 26.6875 368.109 29.3125 368.922 32.3438C369.734 35.3438 370.141 38.625 370.141 42.1875V46.0781H332.266V39H361.469V38.3438C361.344 36.0938 360.875 33.9062 360.062 31.7812C359.281 29.6562 358.031 27.9062 356.312 26.5312C354.594 25.1562 352.25 24.4688 349.281 24.4688C347.312 24.4688 345.5 24.8906 343.844 25.7344C342.188 26.5469 340.766 27.7656 339.578 29.3906C338.391 31.0156 337.469 33 336.812 35.3438C336.156 37.6875 335.828 40.3906 335.828 43.4531V45.4219C335.828 47.8281 336.156 50.0938 336.812 52.2188C337.5 54.3125 338.484 56.1562 339.766 57.75C341.078 59.3438 342.656 60.5938 344.5 61.5C346.375 62.4062 348.5 62.8594 350.875 62.8594C353.938 62.8594 356.531 62.2344 358.656 60.9844C360.781 59.7344 362.641 58.0625 364.234 55.9688L369.484 60.1406C368.391 61.7969 367 63.375 365.312 64.875C363.625 66.375 361.547 67.5938 359.078 68.5312C356.641 69.4688 353.75 69.9375 350.406 69.9375ZM395.031 61.1719L408.906 18.2812H417.766L399.531 69H393.719L395.031 61.1719ZM383.453 18.2812L397.75 61.4062L398.734 69H392.922L374.547 18.2812H383.453ZM31.5156 173.328V147.219C31.5156 145.219 31.1094 143.484 30.2969 142.016C29.5156 140.516 28.3281 139.359 26.7344 138.547C25.1406 137.734 23.1719 137.328 20.8281 137.328C18.6406 137.328 16.7188 137.703 15.0625 138.453C13.4375 139.203 12.1562 140.188 11.2188 141.406C10.3125 142.625 9.85938 143.938 9.85938 145.344H1.1875C1.1875 143.531 1.65625 141.734 2.59375 139.953C3.53125 138.172 4.875 136.562 6.625 135.125C8.40625 133.656 10.5312 132.5 13 131.656C15.5 130.781 18.2812 130.344 21.3438 130.344C25.0312 130.344 28.2812 130.969 31.0938 132.219C33.9375 133.469 36.1562 135.359 37.75 137.891C39.375 140.391 40.1875 143.531 40.1875 147.312V170.938C40.1875 172.625 40.3281 174.422 40.6094 176.328C40.9219 178.234 41.375 179.875 41.9688 181.25V182H32.9219C32.4844 181 32.1406 179.672 31.8906 178.016C31.6406 176.328 31.5156 174.766 31.5156 173.328ZM33.0156 151.25L33.1094 157.344H24.3438C21.875 157.344 19.6719 157.547 17.7344 157.953C15.7969 158.328 14.1719 158.906 12.8594 159.688C11.5469 160.469 10.5469 161.453 9.85938 162.641C9.17188 163.797 8.82812 165.156 8.82812 166.719C8.82812 168.312 9.1875 169.766 9.90625 171.078C10.625 172.391 11.7031 173.438 13.1406 174.219C14.6094 174.969 16.4062 175.344 18.5312 175.344C21.1875 175.344 23.5312 174.781 25.5625 173.656C27.5938 172.531 29.2031 171.156 30.3906 169.531C31.6094 167.906 32.2656 166.328 32.3594 164.797L36.0625 168.969C35.8438 170.281 35.25 171.734 34.2812 173.328C33.3125 174.922 32.0156 176.453 30.3906 177.922C28.7969 179.359 26.8906 180.562 24.6719 181.531C22.4844 182.469 20.0156 182.938 17.2656 182.938C13.8281 182.938 10.8125 182.266 8.21875 180.922C5.65625 179.578 3.65625 177.781 2.21875 175.531C0.8125 173.25 0.109375 170.703 0.109375 167.891C0.109375 165.172 0.640625 162.781 1.70312 160.719C2.76562 158.625 4.29688 156.891 6.29688 155.516C8.29688 154.109 10.7031 153.047 13.5156 152.328C16.3281 151.609 19.4688 151.25 22.9375 151.25H33.0156ZM62.5 142.109V182H53.8281V131.281H62.0312L62.5 142.109ZM60.4375 154.719L56.8281 154.578C56.8594 151.109 57.375 147.906 58.375 144.969C59.375 142 60.7812 139.422 62.5938 137.234C64.4062 135.047 66.5625 133.359 69.0625 132.172C71.5938 130.953 74.3906 130.344 77.4531 130.344C79.9531 130.344 82.2031 130.688 84.2031 131.375C86.2031 132.031 87.9062 133.094 89.3125 134.562C90.75 136.031 91.8438 137.938 92.5938 140.281C93.3438 142.594 93.7188 145.422 93.7188 148.766V182H85V148.672C85 146.016 84.6094 143.891 83.8281 142.297C83.0469 140.672 81.9062 139.5 80.4062 138.781C78.9062 138.031 77.0625 137.656 74.875 137.656C72.7188 137.656 70.75 138.109 68.9688 139.016C67.2188 139.922 65.7031 141.172 64.4219 142.766C63.1719 144.359 62.1875 146.188 61.4688 148.25C60.7812 150.281 60.4375 152.438 60.4375 154.719ZM138.859 172.156V110H147.578V182H139.609L138.859 172.156ZM104.734 157.203V156.219C104.734 152.344 105.203 148.828 106.141 145.672C107.109 142.484 108.469 139.75 110.219 137.469C112 135.188 114.109 133.438 116.547 132.219C119.016 130.969 121.766 130.344 124.797 130.344C127.984 130.344 130.766 130.906 133.141 132.031C135.547 133.125 137.578 134.734 139.234 136.859C140.922 138.953 142.25 141.484 143.219 144.453C144.188 147.422 144.859 150.781 145.234 154.531V158.844C144.891 162.562 144.219 165.906 143.219 168.875C142.25 171.844 140.922 174.375 139.234 176.469C137.578 178.562 135.547 180.172 133.141 181.297C130.734 182.391 127.922 182.938 124.703 182.938C121.734 182.938 119.016 182.297 116.547 181.016C114.109 179.734 112 177.938 110.219 175.625C108.469 173.312 107.109 170.594 106.141 167.469C105.203 164.312 104.734 160.891 104.734 157.203ZM113.453 156.219V157.203C113.453 159.734 113.703 162.109 114.203 164.328C114.734 166.547 115.547 168.5 116.641 170.188C117.734 171.875 119.125 173.203 120.812 174.172C122.5 175.109 124.516 175.578 126.859 175.578C129.734 175.578 132.094 174.969 133.938 173.75C135.812 172.531 137.312 170.922 138.438 168.922C139.562 166.922 140.438 164.75 141.062 162.406V151.109C140.688 149.391 140.141 147.734 139.422 146.141C138.734 144.516 137.828 143.078 136.703 141.828C135.609 140.547 134.25 139.531 132.625 138.781C131.031 138.031 129.141 137.656 126.953 137.656C124.578 137.656 122.531 138.156 120.812 139.156C119.125 140.125 117.734 141.469 116.641 143.188C115.547 144.875 114.734 146.844 114.203 149.094C113.703 151.312 113.453 153.688 113.453 156.219ZM28.0938 268.234H9.85938V260.875H28.0938C31.625 260.875 34.4844 260.312 36.6719 259.188C38.8594 258.062 40.4531 256.5 41.4531 254.5C42.4844 252.5 43 250.219 43 247.656C43 245.312 42.4844 243.109 41.4531 241.047C40.4531 238.984 38.8594 237.328 36.6719 236.078C34.4844 234.797 31.625 234.156 28.0938 234.156H11.9688V295H2.92188V226.75H28.0938C33.25 226.75 37.6094 227.641 41.1719 229.422C44.7344 231.203 47.4375 233.672 49.2812 236.828C51.125 239.953 52.0469 243.531 52.0469 247.562C52.0469 251.938 51.125 255.672 49.2812 258.766C47.4375 261.859 44.7344 264.219 41.1719 265.844C37.6094 267.438 33.25 268.234 28.0938 268.234ZM91.5156 286.328V260.219C91.5156 258.219 91.1094 256.484 90.2969 255.016C89.5156 253.516 88.3281 252.359 86.7344 251.547C85.1406 250.734 83.1719 250.328 80.8281 250.328C78.6406 250.328 76.7188 250.703 75.0625 251.453C73.4375 252.203 72.1562 253.188 71.2188 254.406C70.3125 255.625 69.8594 256.938 69.8594 258.344H61.1875C61.1875 256.531 61.6562 254.734 62.5938 252.953C63.5312 251.172 64.875 249.562 66.625 248.125C68.4062 246.656 70.5312 245.5 73 244.656C75.5 243.781 78.2812 243.344 81.3438 243.344C85.0312 243.344 88.2812 243.969 91.0938 245.219C93.9375 246.469 96.1562 248.359 97.75 250.891C99.375 253.391 100.188 256.531 100.188 260.312V283.938C100.188 285.625 100.328 287.422 100.609 289.328C100.922 291.234 101.375 292.875 101.969 294.25V295H92.9219C92.4844 294 92.1406 292.672 91.8906 291.016C91.6406 289.328 91.5156 287.766 91.5156 286.328ZM93.0156 264.25L93.1094 270.344H84.3438C81.875 270.344 79.6719 270.547 77.7344 270.953C75.7969 271.328 74.1719 271.906 72.8594 272.688C71.5469 273.469 70.5469 274.453 69.8594 275.641C69.1719 276.797 68.8281 278.156 68.8281 279.719C68.8281 281.312 69.1875 282.766 69.9062 284.078C70.625 285.391 71.7031 286.438 73.1406 287.219C74.6094 287.969 76.4062 288.344 78.5312 288.344C81.1875 288.344 83.5312 287.781 85.5625 286.656C87.5938 285.531 89.2031 284.156 90.3906 282.531C91.6094 280.906 92.2656 279.328 92.3594 277.797L96.0625 281.969C95.8438 283.281 95.25 284.734 94.2812 286.328C93.3125 287.922 92.0156 289.453 90.3906 290.922C88.7969 292.359 86.8906 293.562 84.6719 294.531C82.4844 295.469 80.0156 295.938 77.2656 295.938C73.8281 295.938 70.8125 295.266 68.2188 293.922C65.6562 292.578 63.6562 290.781 62.2188 288.531C60.8125 286.25 60.1094 283.703 60.1094 280.891C60.1094 278.172 60.6406 275.781 61.7031 273.719C62.7656 271.625 64.2969 269.891 66.2969 268.516C68.2969 267.109 70.7031 266.047 73.5156 265.328C76.3281 264.609 79.4688 264.25 82.9375 264.25H93.0156ZM122.5 252.25V295H113.828V244.281H122.266L122.5 252.25ZM138.344 244L138.297 252.062C137.578 251.906 136.891 251.812 136.234 251.781C135.609 251.719 134.891 251.688 134.078 251.688C132.078 251.688 130.312 252 128.781 252.625C127.25 253.25 125.953 254.125 124.891 255.25C123.828 256.375 122.984 257.719 122.359 259.281C121.766 260.812 121.375 262.5 121.188 264.344L118.75 265.75C118.75 262.688 119.047 259.812 119.641 257.125C120.266 254.438 121.219 252.062 122.5 250C123.781 247.906 125.406 246.281 127.375 245.125C129.375 243.938 131.75 243.344 134.5 243.344C135.125 243.344 135.844 243.422 136.656 243.578C137.469 243.703 138.031 243.844 138.344 244ZM169.938 244.281V250.938H142.516V244.281H169.938ZM151.797 231.953H160.469V282.438C160.469 284.156 160.734 285.453 161.266 286.328C161.797 287.203 162.484 287.781 163.328 288.062C164.172 288.344 165.078 288.484 166.047 288.484C166.766 288.484 167.516 288.422 168.297 288.297C169.109 288.141 169.719 288.016 170.125 287.922L170.172 295C169.484 295.219 168.578 295.422 167.453 295.609C166.359 295.828 165.031 295.938 163.469 295.938C161.344 295.938 159.391 295.516 157.609 294.672C155.828 293.828 154.406 292.422 153.344 290.453C152.312 288.453 151.797 285.766 151.797 282.391V231.953ZM188.781 255.109V295H180.109V244.281H188.312L188.781 255.109ZM186.719 267.719L183.109 267.578C183.141 264.109 183.656 260.906 184.656 257.969C185.656 255 187.062 252.422 188.875 250.234C190.688 248.047 192.844 246.359 195.344 245.172C197.875 243.953 200.672 243.344 203.734 243.344C206.234 243.344 208.484 243.688 210.484 244.375C212.484 245.031 214.188 246.094 215.594 247.562C217.031 249.031 218.125 250.938 218.875 253.281C219.625 255.594 220 258.422 220 261.766V295H211.281V261.672C211.281 259.016 210.891 256.891 210.109 255.297C209.328 253.672 208.188 252.5 206.688 251.781C205.188 251.031 203.344 250.656 201.156 250.656C199 250.656 197.031 251.109 195.25 252.016C193.5 252.922 191.984 254.172 190.703 255.766C189.453 257.359 188.469 259.188 187.75 261.25C187.062 263.281 186.719 265.438 186.719 267.719ZM254.219 295.938C250.688 295.938 247.484 295.344 244.609 294.156C241.766 292.938 239.312 291.234 237.25 289.047C235.219 286.859 233.656 284.266 232.562 281.266C231.469 278.266 230.922 274.984 230.922 271.422V269.453C230.922 265.328 231.531 261.656 232.75 258.438C233.969 255.188 235.625 252.438 237.719 250.188C239.812 247.938 242.188 246.234 244.844 245.078C247.5 243.922 250.25 243.344 253.094 243.344C256.719 243.344 259.844 243.969 262.469 245.219C265.125 246.469 267.297 248.219 268.984 250.469C270.672 252.688 271.922 255.312 272.734 258.344C273.547 261.344 273.953 264.625 273.953 268.188V272.078H236.078V265H265.281V264.344C265.156 262.094 264.688 259.906 263.875 257.781C263.094 255.656 261.844 253.906 260.125 252.531C258.406 251.156 256.062 250.469 253.094 250.469C251.125 250.469 249.312 250.891 247.656 251.734C246 252.547 244.578 253.766 243.391 255.391C242.203 257.016 241.281 259 240.625 261.344C239.969 263.688 239.641 266.391 239.641 269.453V271.422C239.641 273.828 239.969 276.094 240.625 278.219C241.312 280.312 242.297 282.156 243.578 283.75C244.891 285.344 246.469 286.594 248.312 287.5C250.188 288.406 252.312 288.859 254.688 288.859C257.75 288.859 260.344 288.234 262.469 286.984C264.594 285.734 266.453 284.062 268.047 281.969L273.297 286.141C272.203 287.797 270.812 289.375 269.125 290.875C267.438 292.375 265.359 293.594 262.891 294.531C260.453 295.469 257.562 295.938 254.219 295.938ZM292.75 252.25V295H284.078V244.281H292.516L292.75 252.25ZM308.594 244L308.547 252.062C307.828 251.906 307.141 251.812 306.484 251.781C305.859 251.719 305.141 251.688 304.328 251.688C302.328 251.688 300.562 252 299.031 252.625C297.5 253.25 296.203 254.125 295.141 255.25C294.078 256.375 293.234 257.719 292.609 259.281C292.016 260.812 291.625 262.5 291.438 264.344L289 265.75C289 262.688 289.297 259.812 289.891 257.125C290.516 254.438 291.469 252.062 292.75 250C294.031 247.906 295.656 246.281 297.625 245.125C299.625 243.938 302 243.344 304.75 243.344C305.375 243.344 306.094 243.422 306.906 243.578C307.719 243.703 308.281 243.844 308.594 244ZM346.141 281.547C346.141 280.297 345.859 279.141 345.297 278.078C344.766 276.984 343.656 276 341.969 275.125C340.312 274.219 337.812 273.438 334.469 272.781C331.656 272.188 329.109 271.484 326.828 270.672C324.578 269.859 322.656 268.875 321.062 267.719C319.5 266.562 318.297 265.203 317.453 263.641C316.609 262.078 316.188 260.25 316.188 258.156C316.188 256.156 316.625 254.266 317.5 252.484C318.406 250.703 319.672 249.125 321.297 247.75C322.953 246.375 324.938 245.297 327.25 244.516C329.562 243.734 332.141 243.344 334.984 243.344C339.047 243.344 342.516 244.062 345.391 245.5C348.266 246.938 350.469 248.859 352 251.266C353.531 253.641 354.297 256.281 354.297 259.188H345.625C345.625 257.781 345.203 256.422 344.359 255.109C343.547 253.766 342.344 252.656 340.75 251.781C339.188 250.906 337.266 250.469 334.984 250.469C332.578 250.469 330.625 250.844 329.125 251.594C327.656 252.312 326.578 253.234 325.891 254.359C325.234 255.484 324.906 256.672 324.906 257.922C324.906 258.859 325.062 259.703 325.375 260.453C325.719 261.172 326.312 261.844 327.156 262.469C328 263.062 329.188 263.625 330.719 264.156C332.25 264.688 334.203 265.219 336.578 265.75C340.734 266.688 344.156 267.812 346.844 269.125C349.531 270.438 351.531 272.047 352.844 273.953C354.156 275.859 354.812 278.172 354.812 280.891C354.812 283.109 354.344 285.141 353.406 286.984C352.5 288.828 351.172 290.422 349.422 291.766C347.703 293.078 345.641 294.109 343.234 294.859C340.859 295.578 338.188 295.938 335.219 295.938C330.75 295.938 326.969 295.141 323.875 293.547C320.781 291.953 318.438 289.891 316.844 287.359C315.25 284.828 314.453 282.156 314.453 279.344H323.172C323.297 281.719 323.984 283.609 325.234 285.016C326.484 286.391 328.016 287.375 329.828 287.969C331.641 288.531 333.438 288.812 335.219 288.812C337.594 288.812 339.578 288.5 341.172 287.875C342.797 287.25 344.031 286.391 344.875 285.297C345.719 284.203 346.141 282.953 346.141 281.547Z" fill="#fff"/>
</svg>
