<svg xmlns="http://www.w3.org/2000/svg" width="201" height="30" fill="none"><mask id="a" style="mask-type:luminance" maskUnits="userSpaceOnUse" x="0" y="0" width="201" height="30"><path d="M201 0H0v29.778h201V0z" fill="#fff"/></mask><g mask="url(#a)" fill="#192028"><path d="M70.965 4.007c0-.107-.104-.214-.208-.214H44.56a.228.228 0 00-.216.214v2.314c0 .106.104.213.216.213h26.197c.104 0 .208-.107.208-.213V4.007zm42.651 15.377c-.149-3.88.64-8.97-5.092-8.97H91.543A1.823 1.823 0 0189.726 8.6V4.185c0-.25-.104-.356-.357-.356h-2.062c-.179 0-.283.107-.283.285-.075 4.77-.573 9.041 5.695 9.041h16.303c1.102 0 1.988.89 1.988 1.993v4.236c0 .25.112.356.357.356h1.921c.216 0 .328-.107.328-.356zm-2.39-9.931l2.241 1.53c.111.072.141.036.141-.07l-.029-6.692c0-.285-.142-.428-.462-.428h-1.787c-.245 0-.35.107-.35.356v4.877c0 .178.105.356.246.427zm21.356 1.032a.17.17 0 01-.178-.178v-6.3a.17.17 0 00-.179-.178h-2.382c-.112 0-.179.071-.179.178v15.555c0 .107.067.178.179.178h2.345c.111 0 .178-.071.178-.178v-6.229a.17.17 0 01.179-.178h20.897a.17.17 0 01.178.178v6.265c0 .107.067.178.179.178l2.345-.036c.112 0 .179-.071.179-.178V4.007c0-.107-.067-.178-.179-.178h-2.345c-.112 0-.179.071-.179.178v6.23a.17.17 0 01-.178.177l-20.86.071zM48.83 17.106c-2.308 0-2.487-3.987.394-3.987h21.395c.171 0 .32-.142.32-.32v-2.1a.361.361 0 00-.357-.356c-6.908.07-13.81.107-20.718.107-1.563 0-2.702.249-3.491.711-2.628 1.638-2.74 6.123-.18 7.725.857.534 2.25.818 4.133.818h20.397c.142 0 .216-.07.216-.213l-.037-2.065a.318.318 0 00-.32-.32c-7.229.035-14.487.035-21.753 0zM4.265 13.51v3.205c0 .213.179.391.395.391h18.507c1.354 0 2.456-.89 2.456-1.993 0-1.104-1.102-1.994-2.456-1.994H4.66a.396.396 0 00-.395.392zm22.884-1.565c2.278 3.844.64 7.866-3.945 7.83-7.125-.07-14.242-.035-21.358.036-.216 0-.358-.107-.358-.32v-8.65c0-.249.179-.427.425-.427 7.012.107 14.1.107 21.18-.035 3.453-.072 3.17-3.845.252-3.845H1.808c-.178 0-.282-.106-.282-.284V4.114c0-.178.104-.285.282-.285h22.497c.64 0 1.318.285 2.063.854 2.21 1.745 2.456 4.592.781 6.835-.067.106-.067.249 0 .427z"/><path d="M44.56 3.793h26.197c.104 0 .208.107.208.214v2.314c0 .106-.104.213-.208.213H44.56a.228.228 0 01-.216-.213V4.007c0-.107.104-.214.216-.214zm63.964 6.621c5.732 0 4.943 5.09 5.085 8.97 0 .25-.105.356-.351.356h-1.928c-.245 0-.349-.107-.349-.356v-4.271a1.993 1.993 0 00-1.996-1.994H92.682c-6.298 0-5.77-4.307-5.695-9.04 0-.179.104-.286.283-.286h2.07c.245 0 .35.107.35.356v4.414c0 .997.818 1.816 1.816 1.816 5.516.035 11.211.035 17.018.035zm2.702-.961a.61.61 0 01-.246-.463V4.114c0-.25.105-.356.35-.356h1.787c.283 0 .424.142.462.427l.029 6.692c0 .107-.03.142-.141.071l-2.241-1.495zm21.356 1.032l20.897-.07a.17.17 0 00.178-.179V4.007c0-.107.067-.178.172-.178h2.352a.17.17 0 01.179.178v15.555a.17.17 0 01-.179.178l-2.352.036c-.105 0-.172-.072-.172-.178v-6.265a.17.17 0 00-.178-.178h-20.897a.17.17 0 00-.178.178v6.23a.17.17 0 01-.179.177h-2.382c-.112 0-.179-.071-.179-.178V4.007c0-.107.067-.178.179-.178h2.345c.111 0 .178.071.178.178v6.3c0 .072.112.178.216.178zm63.72-1.886a2.07 2.07 0 00-2.07-2.065h-17.085a2.064 2.064 0 00-2.062 2.065v6.478c0 1.139.923 2.065 2.062 2.065h17.085a2.07 2.07 0 002.07-2.065V8.599zm2.702 6.514c0 2.562-2.099 4.663-4.697 4.663l-17.338-.072c-2.561 0-4.66-2.1-4.66-4.698l.037-6.62c0-2.564 2.099-4.664 4.697-4.664l17.331.071c2.568 0 4.668 2.1 4.668 4.699l-.038 6.62zM48.826 17.106c7.266.036 14.524.036 21.79.036.171 0 .32.142.32.32l.03 2.065c0 .142-.067.213-.209.213H50.36c-1.883 0-3.275-.284-4.131-.818-2.561-1.602-2.457-6.123.178-7.724.782-.463 1.921-.712 3.492-.712 6.9.035 13.81 0 20.718-.107.171 0 .35.142.35.32v2.1c0 .178-.142.32-.32.32-7.155.036-14.272.036-21.388 0-2.919 0-2.74 3.987-.432 3.987zm-26.799 7.76v4.84h3.239v-.89h-2.278v-1.103h2.099v-.89h-2.1v-1.067h2.279v-.89h-3.239zm19.541 2.776v1.174h1.139c.246 0 .424-.07.536-.178a.6.6 0 000-.854c-.112-.107-.29-.178-.536-.178h-1.14v.036zm0-1.887v1.032h1.035c.245 0 .387-.035.49-.142a.447.447 0 00.15-.356c0-.356-.216-.534-.64-.534h-1.035zm-.96-.89h1.883c.32 0 .603.036.856.143a.912.912 0 01.499.356c.104.142.179.284.216.427.03.142.067.249.067.427 0 .534-.216.854-.64 1.032.253.071.461.178.603.392.141.213.215.462.215.747 0 .926-.602 1.388-1.816 1.388h-1.92v-4.912h.037zm18.97 0v4.841h3.238v-.89h-2.278v-1.103h2.107v-.89h-2.107v-1.068h2.278v-.89h-3.238zm20.15 0l-2.033 4.841h1.065l1.213-3.097 1.214 3.097h1.064l-1.995-4.84h-.528zm-75.641 0l-2.024 4.841h1.064l1.214-3.097 1.205 3.097h1.072l-1.995-4.84h-.536zm96.571 1.282a1.443 1.443 0 00-1.065-.427c-.432 0-.789.142-1.072.427-.283.285-.424.676-.424 1.14 0 .462.141.853.424 1.138.283.285.64.427 1.072.427a1.59 1.59 0 001.102-.427c.283-.285.424-.676.424-1.139 0-.463-.141-.819-.461-1.139zm-2.814-.605c.499-.498 1.072-.712 1.75-.712.669 0 1.28.25 1.741.712.499.498.715 1.068.715 1.744 0 .676-.253 1.282-.715 1.744-.499.499-1.072.712-1.742.712a2.44 2.44 0 01-1.75-.712c-.498-.498-.707-1.068-.707-1.744a2.154 2.154 0 01.708-1.744zm19.437-.677v4.841h.961v-3.95h1.853v3.95h.961v-4.84h-3.775zm23.522 0l-1.884 2.314-1.853-2.314h-.566v4.841h.96V26.61l1.459 1.816 1.497-1.816v3.097h.96v-4.84h-.573zm16.162 0v4.841h3.238v-.89h-2.278v-1.103h2.099v-.89h-2.099v-1.068h2.278v-.89h-3.238zm21.359 0v1.958h-1.883v-1.958h-.961v4.841h.961v-1.993h1.883v1.993h.961v-4.84h-.961zm16.086 0v.89h1.318v3.951h.96v-3.95h1.355v-.89h-3.633z"/><path d="M6.828 28.888h-4.98v.854h4.98v-.854z"/></g></svg>