<svg xmlns="http://www.w3.org/2000/svg" width="151" height="45" fill="none"><path d="M61.83 13.63v16.973h-2.147l-3.805-4.172c-.72 1.553-1.698 2.706-2.919 3.45-1.234.744-2.648 1.119-4.268 1.119-1.119 0-2.07-.23-2.855-.684a4.477 4.477 0 01-1.813-1.896c-.411-.81-.617-1.737-.617-2.78V13.63h7.329v11.549c0 .615.154 1.095.45 1.447.296.35.746.526 1.337.526.437 0 .81-.08 1.119-.236.308-.16.59-.413.848-.764V13.633h7.355l-.013-.004zm18.95.305a4.582 4.582 0 011.8 1.932c.4.809.605 1.713.605 2.71v12.026h-7.329v-11.55c0-.614-.141-1.091-.437-1.438-.283-.344-.694-.52-1.234-.52-.862 0-1.543.329-2.057.985V30.6h-7.355V13.625h2.148l3.741 3.73c1.041-1.413 2.16-2.459 3.356-3.13a7.658 7.658 0 013.831-1.012c1.145 0 2.122.237 2.932.714m5.221-.297h7.355v16.973h-7.355V13.63zm1.544-1.832a3.893 3.893 0 01-1.505-1.34c-.373-.569-.553-1.21-.553-1.924 0-.713.18-1.316.553-1.881a3.905 3.905 0 011.505-1.332 4.64 4.64 0 012.12-.485c.772 0 1.48.164 2.122.492.656.329 1.17.775 1.556 1.34.373.565.566 1.187.566 1.866 0 .68-.193 1.352-.566 1.924a3.88 3.88 0 01-1.53 1.34 4.747 4.747 0 01-2.147.485c-.784 0-1.479-.16-2.121-.485zm22.174 6.744l6.995 11.882v.18h-8.653l-3.253-6.917-1.119 1.15v5.766h-7.354V5.843h7.354V21.65l7.187-8.019h3.562l-4.719 4.912zm16.471-1.97c-.258-.809-.682-1.217-1.248-1.217-.681 0-1.169.404-1.465 1.217-.309.81-.476 2.061-.502 3.745h3.587c.013-1.688-.115-2.936-.372-3.745zm3.42-2.274a6.99 6.99 0 012.803 2.973c.63 1.267.925 2.71.899 4.328h-10.35c.026 1.962.309 3.561.862 4.798.566 1.236 1.517 1.859 2.867 1.859a4.98 4.98 0 002.751-.821 9.979 9.979 0 002.25-1.989l1.248 1.512c-.823 1.214-1.929 2.19-3.292 2.924-1.362.732-3.008 1.102-4.95 1.102-1.774 0-3.304-.358-4.616-1.076a7.348 7.348 0 01-3.008-3.05c-.707-1.312-1.067-2.854-1.067-4.618 0-1.763.385-3.278 1.157-4.648a8.2 8.2 0 013.253-3.214c1.401-.771 2.995-1.157 4.808-1.157 1.685 0 3.15.359 4.385 1.077zm7.228 24.476l3.703-7.335-7.753-17.81h8.254l2.726 7.886.514 2.072 1.929-5.045 1.697-4.913h3.086l-6.969 16.794-3.574 8.481-3.613-.13zM25.033 0H0v45h25.033L37.22 22.397 25.033 0z" fill="#192028"/></svg>