<svg xmlns="http://www.w3.org/2000/svg" width="152" height="40" fill="none"><mask id="a" style="mask-type:luminance" maskUnits="userSpaceOnUse" x="0" y="0" width="152" height="40"><path d="M152 0H0v40h152V0z" fill="#fff"/></mask><g mask="url(#a)" fill="#192028"><path d="M52.531 30.791h4.108v.772h-3.258v5.65h-.85v-6.422zm10.724 1.621a2.716 2.716 0 00-.52-.945 2.228 2.228 0 00-.797-.572 2.661 2.661 0 00-1.014-.19c-.477 0-.897.095-1.253.29-.355.19-.641.485-.866.875l-.1-1.079h-.654v8.987h.845v-3.505c.225.355.507.61.849.78.342.164.732.247 1.179.247a2.58 2.58 0 001.014-.191c.307-.13.57-.32.797-.576a2.8 2.8 0 00.52-.954 4.2 4.2 0 00.186-1.295v-.564c0-.498-.065-.931-.186-1.308zm-.69 1.872c0 .754-.164 1.313-.497 1.677-.334.364-.78.546-1.335.546-.555 0-.98-.191-1.322-.572-.342-.382-.515-.932-.515-1.651v-.668c.017-.693.199-1.217.546-1.577.346-.36.775-.542 1.29-.542.547 0 .989.187 1.327.555.338.368.507.923.507 1.668v.564zm4.302 2.929l-2.656-6.422h.949l2.166 5.37 2.015-5.37h.902l-3.467 8.987h-.897l.988-2.565zm8.945-5.651h-3.31v5.65h-.846v-6.417h5.005v6.418h-.849v-5.65zm7.192 0h-3.311v5.65h-.85v-6.417h5.01v6.418h-.85v-5.65zm6.998-.294c-.39-.377-.966-.563-1.724-.563a3.4 3.4 0 00-1.014.134 2.124 2.124 0 00-.733.377 1.623 1.623 0 00-.45.58 1.996 1.996 0 00-.182.733h.914c.035-.32.17-.568.403-.754.234-.182.59-.277 1.062-.277.52 0 .892.112 1.122.329.225.22.338.559.338 1.022v.577h-1.46a4.85 4.85 0 00-1.235.138c-.343.096-.624.23-.84.4a1.53 1.53 0 00-.478.636 2.367 2.367 0 00-.147.84c0 .581.173 1.036.516 1.366.342.329.832.494 1.477.494.486 0 .923-.113 1.313-.338.39-.226.698-.546.92-.958l.13 1.209h.653v-4.364c0-.675-.195-1.204-.585-1.581zm-.264 3.224c0 .273-.052.533-.16.775-.109.243-.256.46-.45.642a2.147 2.147 0 01-1.496.598c-.38 0-.676-.1-.88-.29-.199-.191-.299-.451-.299-.776 0-.369.14-.668.416-.897.278-.234.746-.347 1.41-.347h1.46v.295zm8.165-.234H96.76v2.955h-.845v-6.422h.845v2.7h1.144l1.837-2.7h1.053l-2.119 3.094 2.375 3.328h-1.053l-2.093-2.955zm9.364-1.808a2.65 2.65 0 00-.572-.953 2.528 2.528 0 00-.893-.589 3.182 3.182 0 00-1.161-.203c-.429 0-.814.069-1.161.203a2.421 2.421 0 00-.884.598 2.67 2.67 0 00-.572.95 3.597 3.597 0 00-.204 1.264v.564c0 .48.065.905.195 1.278.135.373.325.689.572.945.247.255.546.455.893.589a3.09 3.09 0 001.161.204c.429 0 .806-.066 1.157-.204.351-.134.646-.338.893-.598a2.73 2.73 0 00.567-.949c.139-.373.208-.793.208-1.265v-.564c0-.472-.069-.892-.199-1.27zm-.676 1.834c0 .719-.178 1.27-.537 1.65-.36.382-.832.573-1.413.573-.58 0-1.04-.195-1.404-.581-.364-.381-.546-.932-.546-1.642v-.564c0-.719.178-1.27.538-1.65.359-.378.832-.573 1.412-.573.581 0 1.044.195 1.408.581.36.386.542.932.542 1.642v.564zm4.213-1.179l-.693-1.386v5.494h-.845v-6.422h1.178l2.106 3.97 2.106-3.97h1.153v6.422h-.845V31.72l-.694 1.386-1.308 2.5h-.85l-1.308-2.5zm11.344-1.543h-3.311v5.65h-.845v-6.417h5.005v6.418h-.849v-5.65zm6.998-.294c-.39-.377-.962-.563-1.724-.563a3.4 3.4 0 00-1.014.134 2.16 2.16 0 00-.733.377 1.669 1.669 0 00-.45.58 2.1 2.1 0 00-.178.733h.91c.035-.32.169-.568.407-.754.234-.182.585-.277 1.058-.277.52 0 .897.112 1.122.329.225.22.342.559.342 1.022v.577h-1.464c-.481 0-.893.047-1.231.138-.342.096-.624.23-.845.4a1.51 1.51 0 00-.472.636 2.26 2.26 0 00-.147.84c0 .581.169 1.036.511 1.366.342.329.836.494 1.477.494.49 0 .928-.113 1.318-.338.385-.226.693-.546.914-.958l.13 1.209h.654v-4.364c0-.675-.195-1.204-.585-1.581zm-.26 3.224a1.95 1.95 0 01-.611 1.417 2.165 2.165 0 01-1.495.598c-.385 0-.68-.1-.879-.29-.204-.191-.304-.451-.304-.776a1.1 1.1 0 01.421-.897c.277-.234.745-.347 1.404-.347h1.464v.295zm7.381-.17h-3.571v2.89h-.844v-6.417h.844v2.756h3.571v-2.756h.845v6.418h-.845v-2.89zm7.445-2.552l-.797 1.335-2.565 4.108h-1.053v-6.422h.845v5.46l.797-1.352 2.565-4.108h1.053v6.422h-.845v-5.442zm7.238-.974l-2.566 4.107-.797 1.348v-5.455h-.845v6.417h1.053l2.565-4.108.798-1.334v5.442h.845v-6.417h-1.053zm-.642-2.57c0 .386-.082.663-.242.836-.165.17-.395.256-.694.256-.299 0-.515-.087-.676-.256-.156-.173-.234-.45-.234-.836h-.823c0 .559.156.988.464 1.296.307.307.732.463 1.269.463.538 0 .962-.156 1.27-.463.308-.308.464-.737.464-1.296h-.798zm-81.58-25.63H67.2l-8.666 15.057V2.596h-6.003v22.87h7.587l8.671-15.053v15.053h6.014V2.596h-6.075zm26.861 8.77h-8.744v-8.77h-6.001v22.87h6V16.7h8.745v8.766h5.997V2.596h-5.997v8.77zm26.578-8.77l-5.651 8.77h-2.89v-8.77h-6.001v22.87h6.001v-8.77h2.912l5.629 8.726h6.872l-7.791-11.413 7.791-11.413h-6.872zm18.471 0c-6.27 0-11.357 5.121-11.357 11.435 0 6.313 5.087 11.435 11.357 11.435S152 20.344 152 14.03s-5.088-11.435-11.362-11.435zm0 17.566c-3.094 0-5.607-2.743-5.607-6.131 0-3.389 2.513-6.132 5.607-6.132 3.094 0 5.612 2.748 5.612 6.132 0 3.384-2.514 6.131-5.612 6.131zM0 0v39.778h39.778V0H0zm33.941 33.941H28.72V11.067h-1.751L15.941 33.94H5.837V5.837h5.221V28.71h1.53L23.615 5.837h10.326V33.94z"/></g></svg>