<svg xmlns="http://www.w3.org/2000/svg" width="188" height="40" fill="none"><path fill-rule="evenodd" clip-rule="evenodd" d="M11.449 22.157L0 31.077V8.923L11.449 0v22.157zm14.421 8.919L14.423 40V17.843l11.449-8.92v22.153zm21.264-13.233l-4.75 5.954-4.767-5.954h-5.648l7.637 9.44-3.027 3.793h5.203l10.412-13.233h-5.06zm40.599 0l-8.924 7.489v-7.49H74.2v13.234h3.87l8.918-7.485v7.485h4.611V17.843h-3.865zm96.356 0l-8.924 7.489v-7.49h-4.61v13.234h3.869l8.919-7.485v7.485h4.61V17.843h-3.864zm-117.77 0V22.6h-8.03v-4.758h-4.605v13.233h4.605v-4.759h8.03v4.759h4.61V17.843h-4.61zm76.172 0h-11.636v13.233h4.615v-3.128h7.026c3.348 0 5.318-2.425 5.318-5.045 0-2.621-1.956-5.046-5.318-5.046l-.005-.014zm-1.071 6.872h-5.95v-3.658h5.955a1.831 1.831 0 010 3.658h-.005zm17.315-7.321c-6.528 0-9.876 3.166-9.876 7.063 0 3.898 3.348 7.064 9.89 7.064 6.543 0 9.89-3.161 9.89-7.064 0-3.902-3.347-7.063-9.89-7.063h-.014zm0 10.63c-3.491 0-4.993-1.596-4.993-3.567 0-1.97 1.502-3.563 4.993-3.563 3.491 0 4.993 1.598 4.993 3.563 0 1.966-1.478 3.568-4.993 3.568zm-47.655-1.912a16.363 16.363 0 01-6.891 1.837c-3.549 0-5.079-1.473-5.079-3.482 0-2.008 1.53-3.477 5.079-3.477 2.402.085 4.756.7 6.891 1.803v-4.05a16.985 16.985 0 00-6.877-1.473c-7.035 0-10.043 3.218-10.043 7.173s3.027 7.174 10.043 7.174c2.368.005 4.71-.486 6.877-1.44v-4.065zm17.987-8.269h-16.208v3.716h5.801v9.517h4.611v-9.517h5.796v-3.716zm51.725-5.638l-4.026 4.15h5.174l5.07-4.15h-6.218z" fill="#192028"/></svg>