<svg xmlns="http://www.w3.org/2000/svg" width="129" height="67" fill="none"><path d="M93.782 44.6v3.355h-.958v-4.232h2.93v.878h-1.972zm3.848 2.174v1.181h-.958v-4.232h1.82c.24 0 .455.04.64.117a1.36 1.36 0 01.769.798c.066.18.099.376.099.58 0 .218-.035.42-.107.608a1.44 1.44 0 01-.817.829c-.198.08-.42.12-.667.12h-.78zm0-2.173v1.298h.752c.208 0 .367-.061.483-.183a.665.665 0 00.172-.472.634.634 0 00-.176-.467c-.117-.118-.286-.176-.509-.176h-.723zm4.875 3.354h-.982l.598-1.329-1.562-2.903h1.063l.965 1.87.848-1.87h.981l-1.911 4.232zm5.436 0v-3.354h-1.729v3.354h-.958v-4.232h3.645v4.232h-.958zm4.839 0v-3.354h-1.73v3.354h-.956v-4.232h3.645v4.232h-.959zM84.55 33.38h-5.037l-.925 2.287a3.242 3.242 0 00-.103.23l-.103.256a4.148 4.148 0 00-.193.54 2.35 2.35 0 00-.089.669c0 .342.094.622.282.835.188.214.643.338 1.361.373v.515h-4.368v-.514a1.997 1.997 0 001.195-.488c.333-.292.587-.609.758-.951a1.296 1.296 0 00.153-.31l5.68-14.573h.463l5.859 16.322h1.748v.514h-7.068v-.514h2.287l-1.902-5.193.003.003zm-2.389-6.887l-2.519 6.374h4.73l-2.21-6.373zm24.501 6.988l-.206 5.603h-.67a1.383 1.383 0 00-.102-.462 1.033 1.033 0 00-.244-.4c-.113-.11-.27-.166-.478-.166a1.32 1.32 0 00-.526.115 3.822 3.822 0 00-.551.296c-.087.052-.187.113-.308.18a3.534 3.534 0 01-.435.207c-.292.12-.649.23-1.066.334-.42.103-.904.154-1.454.154-1.884 0-3.49-.701-4.819-2.108-1.328-1.403-2.068-3.23-2.222-5.473 0-.137-.005-.275-.012-.411a5.998 5.998 0 010-.822c.01-.136.011-.274.011-.41.155-2.28.916-4.207 2.287-5.784 1.37-1.575 3.127-2.364 5.27-2.364.427 0 .814.042 1.157.129.343.087.65.171.925.256l.747.281c.222.087.42.13.591.13.069 0 .146-.005.233-.012a.824.824 0 00.281-.09.909.909 0 00.282-.232c.083-.103.162-.256.232-.462h.617l.052 5.474h-.566c-.171-1.49-.57-2.695-1.195-3.61-.626-.916-1.691-1.376-3.199-1.376-.24 0-.501.026-.784.077a4.03 4.03 0 00-.888.282c-.701.308-1.345.93-1.927 1.864-.582.934-.873 2.378-.873 4.33v4.165c0 1.577.26 2.768.784 3.573.524.805 1.102 1.361 1.735 1.67a3.65 3.65 0 001.04.374c.333.061.622.09.861.09a4.789 4.789 0 00.977-.104c.789-.207 1.542-.702 2.263-1.49.72-.79 1.241-2.057 1.567-3.803h.618l-.005-.005zm16.638-9.047v-1.671h-1.798v-.515h6.657v.515h-1.978V38.57h1.978v.514h-6.657v-.514h1.798V25.359l-7.583 11.797v1.414h1.799v.514h-6.657v-.514h1.979V22.763h-1.979v-.515h6.657v.515h-1.799v13.34l7.583-11.67zM52.294 39.27c-.968.103-1.575-.78-1.865-1.583-.042-.117-.101-.126-.175-.03-3.261 4.145 4.398 6.353 4.494.879.049-2.696-2.008-5.067-4.246-6.316-.947-.527-1.975-.9-3.029-1.143a31.694 31.694 0 00-1.587-.288c2.314-.775 4.853-2.006 5.842-4.057.242-.5.34-1.037.29-1.541 0-2.273-1.863-2.514-1.863-2.514-.566-.127-1.198-.049-1.78.22-1.39.638-2.65 2.457-3.427 3.964.62-5.912-3.099-11.322-7.97-14.194a.306.306 0 00-.46.21c-.035.197.007.34.124.43 1.994 1.492 2.622 4.466 2.615 6.77-.007 1.638-.322 4.265 1.509 4.817 1.755.532 3.694-1.58 1.537-2.666-.764-.382-1.804.177-1.39 1.008.06.117.11.211.131.232.219.22.474.34.764.357a.14.14 0 01.11.07.143.143 0 01-.053.194c-1.6.874-2.422-2.295.125-2.594 1.301-.155 1.833.91 2 2.065a13.68 13.68 0 01-.061 4.345c-.007 0-.168.777-.253 1.15l-.019.069a18.1 18.1 0 01-.333 1.258c-.888.037-1.799.134-2.728.28-.07-.24-.136-.482-.205-.721-.103-.37-.21-.743-.313-1.114l-.317-1.122-.318-1.127-.317-1.127-.317-1.125-.316-1.116-.312-1.104c-.104-.363-.205-.727-.309-1.088-.1-.356-.202-.713-.3-1.07-.1-.346-.199-.696-.298-1.044l-.287-1.016-.278-.985-.27-.947-.257-.906-.246-.863c-.078-.271-.157-.543-.233-.812-.073-.253-.144-.506-.218-.759a774.87 774.87 0 00-.391-1.343c-.055-.191-.113-.384-.17-.575l-.152-.506-.131-.433-.11-.354-.088-.274a1.486 1.486 0 00-.177-.4c-.101-.145-.198-.285-.345-.389a.787.787 0 00-.423-.156.77.77 0 00-.424.156c-.147.104-.243.244-.344.39-.086.121-.132.261-.178.4-.03.09-.06.181-.087.273l-.11.354-.131.433-.152.506c-.058.19-.113.384-.17.575l-.187.642c-.069.234-.136.469-.205.701-.073.253-.147.506-.218.76-.078.27-.157.542-.233.811l-.245.863c-.088.3-.173.604-.258.906a607.862 607.862 0 00-.547 1.932c-.097.338-.192.676-.288 1.016l-.297 1.045c-.101.356-.202.713-.301 1.07-.104.363-.205.726-.308 1.087-.104.368-.207.736-.313 1.104l-.315 1.116-.318 1.125-.317 1.127-.317 1.127-.318 1.122c-.103.37-.21.743-.313 1.114l-.204.722a22.99 22.99 0 00-2.728-.28 19.152 19.152 0 01-.334-1.259l-.018-.069c-.085-.373-.246-1.152-.253-1.15a13.747 13.747 0 01-.062-4.345c.168-1.155.699-2.22 2-2.065 2.547.299 1.728 3.468.125 2.594a.142.142 0 01.057-.264c.29-.017.546-.136.764-.357a2.25 2.25 0 00.131-.232c.416-.83-.623-1.39-1.39-1.008-2.157 1.086-.215 3.195 1.537 2.666 1.829-.554 1.514-3.181 1.51-4.816-.008-2.305.62-5.28 2.614-6.772.118-.09.16-.232.125-.43a.308.308 0 00-.46-.21c-4.872 2.873-8.594 8.283-7.97 14.195-.778-1.507-2.038-3.329-3.427-3.963-.585-.267-1.217-.346-1.78-.221 0 0-1.864.241-1.864 2.514-.05.504.048 1.042.29 1.54.989 2.052 3.528 3.283 5.842 4.058-.724.113-1.449.256-1.587.288a11.596 11.596 0 00-3.03 1.143c-2.24 1.249-4.293 3.618-4.245 6.316.097 5.472 7.756 3.266 4.494-.879-.073-.096-.133-.087-.174.03-.29.803-.9 1.686-1.866 1.583-1.235-.131-1.569-1.541-1.228-2.579.572-1.75 1.994-2.923 3.57-3.797 1.826-1.012 3.694-1.369 5.745-1.369h.076a16.788 16.788 0 001.415 3.014c-.94.409-1.686 1.097-2.238 2.067-.108.186-.203.182-.285-.018-.553-1.325-1.475-2.222-2.767-2.684-.513-.185-1.134-.309-1.657-.088-.508.216-.869.844-.687 1.39.299.897 1.693.958 1.904-.024a.204.204 0 01.228-.179.204.204 0 01.18.228c-.079 3.418.646 6.58 3.794 8.172-.36 1.047-.827 2.059-1.472 2.96-.798 1.118-1.952 2.229-3.34 2.53-.402.088-.768 0-1.115-.225-.72-.465-.987-1.599-.688-2.348.286-.714 1.033-1.238 1.813-1.035.671.174 1.104.793 1.382 1.389.053.113.11.117.177.014 2.88-4.419-4.945-5.937-4.554-.477.071.99.23 1.861.76 2.66.648.975 1.538 1.536 2.716 1.67 3.73.42 6.659-1.77 7.756-5.227.37-1.166.72-2.336 1.053-3.512.253-.892.5-1.785.74-2.68.451.39.912.769 1.37 1.144 1.276 1.049 2.575 2.114 3.59 3.367-.067.097-.134.193-.198.292-.649.59-1.162 1.334-1.53 2.245-.517 1.279-3.16.087-1.168-1.66.101-.088.087-.152-.042-.194-5.005-1.592-3.535 6.631.62 4.423a.12.12 0 01.1-.007.126.126 0 01.074.161c-.534 1.562.166 2.71 1.297 3.56l1.408.834 1.408-.833c1.131-.851 1.83-1.999 1.297-3.56a.128.128 0 01.074-.162.13.13 0 01.1.007c4.155 2.208 5.625-6.014.62-4.423-.13.042-.14.106-.042.193 1.992 1.748-.65 2.94-1.169 1.661-.367-.91-.88-1.656-1.53-2.245a8.772 8.772 0 00-.197-.292c1.014-1.251 2.314-2.319 3.59-3.367.458-.375.918-.755 1.37-1.143.24.894.487 1.787.74 2.68.333 1.175.683 2.348 1.053 3.511 1.097 3.455 4.026 5.645 7.756 5.226 1.178-.133 2.068-.694 2.717-1.67.531-.798.69-1.672.759-2.658.39-5.459-7.434-3.943-4.554.476.064.103.124.099.177-.014.278-.596.708-1.215 1.382-1.39.78-.202 1.527.322 1.813 1.036.299.75.034 1.883-.688 2.348-.348.223-.71.313-1.116.225-1.387-.301-2.541-1.412-3.34-2.53-.641-.899-1.11-1.913-1.471-2.96 3.148-1.592 3.873-4.752 3.794-8.172a.205.205 0 11.408-.049c.211.982 1.605.92 1.904.023.182-.545-.18-1.173-.688-1.389-.522-.223-1.143-.099-1.656.088-1.29.462-2.212 1.357-2.767 2.684-.083.198-.177.204-.285.018-.552-.97-1.297-1.658-2.238-2.068a16.704 16.704 0 001.415-3.013h.076c2.051 0 3.917.357 5.745 1.369 1.576.874 3 2.047 3.57 3.797.338 1.038.007 2.448-1.228 2.579h-.005zm-29.899-8.95c-1.293-.315-2.604-.821-3.744-1.506-.495-.297-.974-.69-1.296-1.174a2.543 2.543 0 01-.381-1.097c1.175.451 2.636.803 2.636.803s-.288-1.472-.686-2.666c.76.272 1.488.987 1.847 1.557.709 1.127 1.681 4.012 1.76 4.122a2.303 2.303 0 00-.136-.039zm.856 11.438c-1.088-2.146-1.247-5.478 1.423-6.564.09.186.189.37.293.55a925.594 925.594 0 01-1.719 6.017l.003-.003zm2.153-7.56h-.007a15.706 15.706 0 01-1.318-2.634c.68.044 1.35.115 2.005.214-.232.826-.462 1.636-.683 2.42h.003zm7.491-14.965a2.23 2.23 0 01.18-.508c.078-.142.193-.299.354-.35.267-.082.485.297.566.497.055.138.08.283.12.426.063.24.119.48.176.722.117.48.237.962.352 1.445.115.483.233.963.35 1.444l.345 1.445.345 1.446.345 1.447c.115.483.23.964.347 1.445l.35 1.444c.027.117.057.237.087.354.007.033.074.354.088.354h-6.806c.947-3.866 1.842-7.746 2.801-11.608v-.003zm1.872 27.034c.005.929-.333 1.89-1.196 2.898a.539.539 0 01-.073.067.707.707 0 01-.074-.067c-.862-1.005-1.2-1.97-1.196-2.898.005-.828.633-1.25 1.27-1.26.637.01 1.265.432 1.27 1.26zm2.236-6.788c-.803.658-1.612 1.325-2.364 2.038.096-.35.14-.692.135-1.033-.009-.828-.642-1.244-1.279-1.251-.637.007-1.27.425-1.279 1.251-.004.338.04.683.136 1.033-.752-.713-1.561-1.38-2.364-2.038a56.839 56.839 0 01-1.723-1.453c.253-.958.504-1.914.747-2.873h8.962c.244.959.494 1.916.747 2.873-.547.487-1.13.965-1.723 1.453h.005zm6.742 2.28c-.43-1.482-1.028-3.584-1.719-6.018.104-.179.203-.36.292-.55 2.671 1.089 2.512 4.42 1.424 6.565l.003.002zM41.599 34.2h-.007c-.221-.784-.451-1.594-.683-2.42a23.56 23.56 0 012.005-.213c-.38.982-.83 1.856-1.318 2.633h.003zm2.866-3.84c.08-.111 1.053-2.993 1.76-4.123.358-.572 1.087-1.285 1.846-1.557-.398 1.194-.685 2.666-.685 2.666s1.46-.354 2.636-.803a2.513 2.513 0 01-.382 1.098c-.322.482-.8.876-1.295 1.173-1.141.685-2.452 1.19-3.745 1.506a2.242 2.242 0 00-.135.04z" fill="#192028"/><path d="M14.817 42.801c-1.29-.297-2.303-.147-3.121.288-1.477.782-.304 3.052 1.189 2.302.828-.416 1.534-1.157 2.04-2.38a.706.706 0 00.037-.153.73.73 0 00-.145-.057zm.107-11.022c.927.009 1.893-.323 2.905-1.178a.775.775 0 00.104-.117.657.657 0 00-.104-.118c-1.012-.855-1.975-1.189-2.905-1.177-1.67.018-1.67 2.571 0 2.59zm5.856-8.826a.7.7 0 00.143.062.856.856 0 00.08-.133c.506-1.224.53-2.245.238-3.126-.527-1.585-2.96-.808-2.469.789.274.888.884 1.706 2.006 2.408h.002zm31.4 19.848c1.29-.297 2.303-.147 3.121.288 1.477.782.304 3.052-1.189 2.302-.828-.416-1.534-1.157-2.04-2.38a.694.694 0 01-.037-.153.736.736 0 01.145-.057zm-.109-11.023c-.927.01-1.893-.322-2.905-1.177a.775.775 0 01-.103-.118.664.664 0 01.103-.117c1.012-.856 1.976-1.19 2.905-1.178 1.67.018 1.67 2.572 0 2.59zm-5.856-8.825a.685.685 0 01-.142.062.865.865 0 01-.08-.133c-.507-1.224-.53-2.245-.238-3.126.527-1.585 2.96-.808 2.468.789-.273.888-.883 1.706-2.005 2.408h-.003zm1.273 23.735c.065.103.124.099.177-.014.279-.596.709-1.215 1.383-1.39.78-.202 1.527.322 1.812 1.036.3.75.035 1.883-.688 2.348-.347.223-.71.313-1.115.225-1.387-.301-2.542-1.412-3.34-2.53-.522-.731-.927-1.536-1.253-2.373l-.003-.012a17.166 17.166 0 01-.214-.577l-.503-1.643a680.785 680.785 0 01-1.153-4.023v-.002l-.566-1.992v-.002l-.434-1.541h-.002l-.684-2.42-.315-1.115c-.069-.242-.136-.483-.205-.722l-.312-1.114-.318-1.122-.317-1.127-.318-1.127-.317-1.125-.315-1.116-.31-1.104c-.104-.363-.205-.727-.309-1.088-.101-.356-.202-.713-.301-1.07l-.297-1.044-.287-1.016c-.092-.329-.187-.656-.279-.985-.09-.315-.18-.63-.269-.947l-.258-.906-.245-.863c-.079-.271-.157-.543-.233-.812l-.218-.759a774.87 774.87 0 00-.391-1.343l-.17-.575-.152-.506-.131-.433-.11-.354-.088-.274a1.486 1.486 0 00-.177-.4c-.102-.145-.198-.285-.345-.389a.787.787 0 00-.424-.156.77.77 0 00-.423.156c-.147.104-.244.244-.345.39-.085.121-.13.261-.177.4-.03.09-.06.181-.087.273l-.11.354-.132.433-.152.506c-.057.19-.112.384-.17.575l-.186.642c-.07.234-.136.469-.205.701-.074.253-.147.506-.218.76-.079.27-.157.542-.233.811l-.246.863c-.087.3-.172.604-.257.906a514.648 514.648 0 00-.548 1.932l-1.187 4.195-.007.023-.31 1.104-.315 1.116-.318 1.125-.317 1.127-.318 1.127-.317 1.122c-.104.37-.21.743-.313 1.114-.069.241-.135.483-.204.722h-.01l-.315 1.115h.01l-.684 2.42h-.007l-.004-.007-.435 1.534.007.014c-.619 2.183-1.162 4.097-1.578 5.537v.004l-.138.474-.005-.01-.503 1.65.004.002c-.014.04-.03.08-.043.12l-.007.023-.007.014a12.37 12.37 0 01-.886 1.964l-.006.016c-.162.28-.334.559-.523.823-.798 1.118-1.952 2.23-3.34 2.53-.402.088-.768 0-1.115-.225-.72-.464-.987-1.598-.688-2.348.285-.713 1.033-1.238 1.813-1.035.671.174 1.104.793 1.382 1.389.053.113.113.117.177.014 2.88-4.419-4.945-5.937-4.554-.476.071.989.23 1.86.759 2.659.649.975 1.539 1.536 2.716 1.67 3.731.42 6.66-1.77 7.756-5.227.37-1.166.72-2.336 1.054-3.512.253-.892.499-1.785.74-2.68l.293-1.097c.253-.956.503-1.913.747-2.872h8.962c.243.959.494 1.916.747 2.872l.292 1.098c.242.894.488 1.787.74 2.68.334 1.175.684 2.348 1.054 3.511 1.097 3.455 4.025 5.645 7.756 5.226 1.178-.133 2.068-.694 2.716-1.67.532-.798.69-1.672.76-2.658.39-5.459-7.434-3.943-4.555.476l.007.007zM30.092 30.844c.948-3.866 1.843-7.746 2.802-11.608.044-.173.094-.35.18-.509.078-.142.193-.299.354-.35.267-.082.485.297.566.498.055.138.08.283.12.425.063.24.119.48.176.722.118.481.237.962.352 1.445.117.48.232.964.35 1.444l.345 1.445.345 1.447.345 1.446c.115.481.23.964.347 1.445.115.48.232.963.35 1.444.03.118.057.237.087.354.007.033.074.355.087.355h-6.806v-.003z" fill="#192028"/><path d="M33.499 67c-4.522 0-8.91-.886-13.04-2.631A33.419 33.419 0 019.81 57.188a33.347 33.347 0 01-7.179-10.65A33.305 33.305 0 010 33.498c0-4.521.886-8.91 2.631-13.038A33.418 33.418 0 019.812 9.81a33.347 33.347 0 0110.65-7.179A33.303 33.303 0 0133.502 0c4.521 0 8.91.886 13.038 2.631A33.448 33.448 0 0157.19 9.81a33.391 33.391 0 019.812 23.689c0 4.522-.885 8.91-2.631 13.04a33.417 33.417 0 01-7.181 10.649A33.394 33.394 0 0133.501 67H33.5zm0-66.266a32.65 32.65 0 00-23.17 9.596A32.654 32.654 0 00.735 33.499a32.652 32.652 0 009.596 23.17A32.652 32.652 0 0033.5 66.264a32.653 32.653 0 0023.17-9.596 32.647 32.647 0 007.021-10.415 32.543 32.543 0 002.574-12.754 32.65 32.65 0 00-9.596-23.169A32.652 32.652 0 0033.498.734z" fill="#192028"/><path d="M12.773 53.814l-1.309 1.3-.37-.373 1.651-1.64 1.137 1.143-.343.34-.764-.768-.002-.002zm2.458 1.619l.467.4-1.458.279-.04 1.504-.516-.446.05-1.265-.646.752-.4-.343 1.518-1.764.4.343-.707.82 1.337-.28h-.005zm1.726 3.657l-.76-.509-.334.26-.449-.299 1.976-1.479.536.36-.61 2.389-.471-.315.112-.407zm.382-1.399l-.756.59.503.335.253-.925zm1.958 3.22l.331-1.821-1.341 1.274-.478-.258 1.819-1.663.568.309-.398 2.43-.499-.268-.002-.003zm2.593-.571a.94.94 0 01.297.2.77.77 0 01.17.263.735.735 0 01.049.301.871.871 0 01-.255.577.8.8 0 01-.258.17.79.79 0 01-.313.053.888.888 0 01-.345-.082l-.872-.38.93-2.134.483.209-.283.649.402.174h-.005zm-.52 1.015c.113.048.21.06.29.03a.3.3 0 00.18-.175.314.314 0 00.007-.253.378.378 0 00-.207-.191l-.35-.152-.257.591.335.148.003.002zm2.667 1.557l-.5-.166.081-.246a1.229 1.229 0 01-.359-.197.963.963 0 01-.352-.637.914.914 0 01.232-.704.89.89 0 01.3-.216 1.072 1.072 0 01.77-.028l.08-.246.5.165-.08.246c.137.049.255.115.358.2a.992.992 0 01.242.29.92.92 0 01.11.348.862.862 0 01-.041.372.89.89 0 01-.49.548.98.98 0 01-.368.085 1.124 1.124 0 01-.403-.058l-.08.246v-.002zm-.267-.874l.283-.855a.558.558 0 00-.2-.03.454.454 0 00-.177.04.417.417 0 00-.14.107.49.49 0 00-.09.158.404.404 0 00-.02.18.428.428 0 00.167.306c.05.039.108.071.177.094zm.5.166a.563.563 0 00.2.03.456.456 0 00.177-.042.42.42 0 00.14-.106.489.489 0 00.09-.158c.02-.06.027-.12.02-.18a.432.432 0 00-.168-.306.575.575 0 00-.177-.094l-.283.856zm2.803 1.075l-.89-.205-.219.361-.526-.122 1.324-2.084.628.145.274 2.452-.552-.126-.039-.421zm-.138-1.445l-.5.82.59.135-.09-.955zm2.641.374a.632.632 0 00-.28.019.717.717 0 00-.416.326.758.758 0 00-.092.27.811.811 0 00.01.29.681.681 0 00.318.43c.08.048.173.08.274.094a.7.7 0 00.683-.286l.368.34a1.283 1.283 0 01-.48.367 1.173 1.173 0 01-.628.069 1.321 1.321 0 01-.481-.161 1.233 1.233 0 01-.359-.31 1.162 1.162 0 01-.207-.422 1.225 1.225 0 01.444-1.283 1.218 1.218 0 01.925-.223 1.3 1.3 0 01.586.225c.161.12.283.283.366.495l-.453.227a.871.871 0 00-.216-.308.662.662 0 00-.362-.156v-.003zm2.074 2.098l.097-1.842-.692-.037.025-.48 1.91.098-.026.481-.693-.037-.096 1.843-.527-.028.003.002zm2.352-.593l.019.649-.527.013-.064-2.325 1.002-.028a.878.878 0 01.355.055.747.747 0 01.435.428c.039.1.06.205.062.318a.946.946 0 01-.051.335.805.805 0 01-.166.276.772.772 0 01-.271.192.972.972 0 01-.366.075l-.428.012zm-.032-1.196l.02.713.415-.012a.343.343 0 00.262-.108.353.353 0 00.087-.262.34.34 0 00-.103-.253c-.067-.062-.161-.092-.283-.09l-.398.012zm3.21 1.679a1.234 1.234 0 01-.906-.241 1.187 1.187 0 01-.46-.815 1.204 1.204 0 01.258-.904 1.22 1.22 0 01.358-.299c.14-.078.297-.126.465-.147.173-.02.338-.009.495.035.156.043.296.112.418.207a1.206 1.206 0 01.456.814c.02.173.007.336-.037.49a1.165 1.165 0 01-.573.71 1.301 1.301 0 01-.474.15zm-.057-.485a.694.694 0 00.467-.265.704.704 0 00.12-.246.764.764 0 00.018-.29.734.734 0 00-.258-.485.707.707 0 00-.239-.127.664.664 0 00-.278-.022.677.677 0 00-.47.264.7.7 0 00-.12.246.804.804 0 00.067.568.675.675 0 00.175.21.67.67 0 00.518.145v.002zm3.479-.163l-.32-1.468-.66 1.681-.531.115-.497-2.274.515-.113.32 1.467.66-1.681.531-.115.497 2.275-.515.113zm-1.047-2.268a.841.841 0 01-.322.018.497.497 0 01-.175-.055l-.087-.398a.83.83 0 00.219.078.64.64 0 00.287-.005.68.68 0 00.265-.115.853.853 0 00.165-.163l.088.398a.493.493 0 01-.136.124.839.839 0 01-.302.118h-.002zm3.803 1.48l-.456-1.43-.499 1.734-.517.165-.706-2.217.501-.159.456 1.431.499-1.734.517-.166.706 2.218-.501.158zm2.289-1.865l-.907.384.357.837-.485.205-.909-2.144.485-.204.366.86.906-.384-.365-.86.485-.205.909 2.141-.486.205-.356-.837v.002zm.458-1.768l.847-.451a1 1 0 01.322-.113.66.66 0 01.271.012.56.56 0 01.214.112.67.67 0 01.154.194.533.533 0 01.067.278.527.527 0 01-.101.276.654.654 0 01.393.027c.113.049.2.134.265.254.043.085.07.17.08.257a.549.549 0 01-.037.258.741.741 0 01-.158.244 1.1 1.1 0 01-.295.213l-.924.493-1.095-2.054h-.002zm.679.152l.223.418.347-.186c.08-.041.13-.094.148-.157a.237.237 0 00-.021-.184.231.231 0 00-.138-.117c-.06-.018-.131-.004-.212.037l-.347.186v.003zm.432.811l.237.444.435-.232a.374.374 0 00.177-.17.217.217 0 00-.009-.196.24.24 0 00-.161-.126.344.344 0 00-.244.05l-.432.23h-.003zm.958-2.093l1.433-.918.255.4-.989.635.237.368.916-.586.248.388-.915.587.255.4.994-.635.255.4-1.435.92-1.256-1.959h.002zm3.006-1.534a.69.69 0 00-.26.47.713.713 0 00.16.521c.061.08.135.145.218.191a.674.674 0 00.529.07.74.74 0 00.49-.445.802.802 0 00.034-.377l.5-.03c.025.214 0 .414-.07.603a1.18 1.18 0 01-.386.501c-.14.11-.29.189-.449.235a1.189 1.189 0 01-1.288-.412 1.176 1.176 0 01-.25-.89 1.18 1.18 0 01.149-.444c.08-.143.19-.269.329-.38.181-.142.37-.232.568-.266.198-.035.4-.01.61.076l-.15.485a.88.88 0 00-.373-.058.667.667 0 00-.363.152l.002-.002zm2.964-.009L52.9 55.09l-.513.467-.325-.357 1.413-1.288.324.357-.513.467 1.245 1.364-.39.354h.003z" fill="#192028"/></svg>